<svg xmlns="http://www.w3.org/2000/svg" viewBox="0 0 1180 620" width="1180" height="620" role="img" aria-label="constellation-quant variant E: + multi-relational R-GAT">
  <defs>
    <marker id="arrow" markerWidth="10" markerHeight="10" refX="8" refY="3" orient="auto" markerUnits="strokeWidth">
      <path d="M0,0 L0,6 L8,3 z" fill="#475569"/>
    </marker>
  </defs>
  <rect width="100%" height="100%" fill="#FFFFFF"/>
  <text x="40" y="42" font-family="Inter, system-ui, sans-serif" font-size="30" font-weight="800" fill="#0F172A" letter-spacing="-0.3">Variant E</text>
  <text x="160" y="42" font-family="Inter, system-ui, sans-serif" font-size="16" fill="#475569" font-weight="500">+ multi-relational R-GAT</text>
  <rect x="40" y="70" width="72" height="22" rx="11" ry="11" fill="#7C3AED" stroke="#7C3AED" stroke-width="1"/>
  <text x="76.0" y="85" text-anchor="middle" font-family="Inter, system-ui, sans-serif" font-size="11" font-weight="600" fill="white">informer</text>
  <rect x="118" y="70" width="93" height="22" rx="11" ry="11" fill="#F8FAFC" stroke="#CBD5E1" stroke-width="1"/>
  <text x="164.5" y="85" text-anchor="middle" font-family="Inter, system-ui, sans-serif" font-size="11" font-weight="600" fill="#94A3B8">multi-scale</text>
  <rect x="217" y="70" width="72" height="22" rx="11" ry="11" fill="#F59E0B" stroke="#F59E0B" stroke-width="1"/>
  <text x="253.0" y="85" text-anchor="middle" font-family="Inter, system-ui, sans-serif" font-size="11" font-weight="600" fill="white">slow MLP</text>
  <rect x="295" y="70" width="100" height="22" rx="11" ry="11" fill="#DB2777" stroke="#DB2777" stroke-width="1"/>
  <text x="345.0" y="85" text-anchor="middle" font-family="Inter, system-ui, sans-serif" font-size="11" font-weight="600" fill="white">gated fusion</text>
  <rect x="401" y="70" width="48" height="22" rx="11" ry="11" fill="#F8FAFC" stroke="#CBD5E1" stroke-width="1"/>
  <text x="425.0" y="85" text-anchor="middle" font-family="Inter, system-ui, sans-serif" font-size="11" font-weight="600" fill="#94A3B8">GAT</text>
  <rect x="455" y="70" width="51" height="22" rx="11" ry="11" fill="#16A34A" stroke="#16A34A" stroke-width="1"/>
  <text x="480.5" y="85" text-anchor="middle" font-family="Inter, system-ui, sans-serif" font-size="11" font-weight="600" fill="white">R-GAT</text>
  <rect x="512" y="70" width="79" height="22" rx="11" ry="11" fill="#F8FAFC" stroke="#CBD5E1" stroke-width="1"/>
  <text x="551.5" y="85" text-anchor="middle" font-family="Inter, system-ui, sans-serif" font-size="11" font-weight="600" fill="#94A3B8">hierarchy</text>
  <rect x="597" y="70" width="114" height="22" rx="11" ry="11" fill="#F8FAFC" stroke="#CBD5E1" stroke-width="1"/>
  <text x="654.0" y="85" text-anchor="middle" font-family="Inter, system-ui, sans-serif" font-size="11" font-weight="600" fill="#94A3B8">dyn membership</text>
  <rect x="717" y="70" width="100" height="22" rx="11" ry="11" fill="#F59E0B" stroke="#F59E0B" stroke-width="1"/>
  <text x="767.0" y="85" text-anchor="middle" font-family="Inter, system-ui, sans-serif" font-size="11" font-weight="600" fill="white">fundamentals</text>
  <rect x="823" y="70" width="79" height="22" rx="11" ry="11" fill="#F8FAFC" stroke="#CBD5E1" stroke-width="1"/>
  <text x="862.5" y="85" text-anchor="middle" font-family="Inter, system-ui, sans-serif" font-size="11" font-weight="600" fill="#94A3B8">sentiment</text>
  <line x1="40" y1="110" x2="1140" y2="110" stroke="#E2E8F0" stroke-width="1"/>
  <rect x="40" y="145" width="170" height="80" rx="10" ry="10" fill="#DBEAFE" stroke="#3B82F6" stroke-width="1.6"/>
  <rect x="40" y="145" width="4" height="80" rx="2" ry="2" fill="#3B82F6"/>
  <text x="125.0" y="167" text-anchor="middle" font-family="Inter, system-ui, sans-serif" font-size="13" font-weight="700" fill="#0F172A" letter-spacing="0.2">Fast input</text>
  <text x="125.0" y="187" text-anchor="middle" font-family="Inter, system-ui, sans-serif" font-size="11" fill="#475569">60-day window</text>
  <text x="125.0" y="201" text-anchor="middle" font-family="Inter, system-ui, sans-serif" font-size="11" fill="#475569">6 features</text>
  <rect x="40" y="243" width="170" height="80" rx="10" ry="10" fill="#DBEAFE" stroke="#3B82F6" stroke-width="1.6"/>
  <rect x="40" y="243" width="4" height="80" rx="2" ry="2" fill="#3B82F6"/>
  <text x="125.0" y="265" text-anchor="middle" font-family="Inter, system-ui, sans-serif" font-size="13" font-weight="700" fill="#0F172A" letter-spacing="0.2">Slow snapshot</text>
  <text x="125.0" y="285" text-anchor="middle" font-family="Inter, system-ui, sans-serif" font-size="11" fill="#475569">8 tech + 4 macro</text>
  <text x="125.0" y="299" text-anchor="middle" font-family="Inter, system-ui, sans-serif" font-size="11" fill="#475569">+ fundamentals</text>
  <rect x="250" y="145" width="200" height="80" rx="10" ry="10" fill="#EDE9FE" stroke="#7C3AED" stroke-width="1.6"/>
  <rect x="250" y="145" width="4" height="80" rx="2" ry="2" fill="#7C3AED"/>
  <text x="350.0" y="167" text-anchor="middle" font-family="Inter, system-ui, sans-serif" font-size="13" font-weight="700" fill="#0F172A" letter-spacing="0.2">Informer encoder</text>
  <text x="350.0" y="187" text-anchor="middle" font-family="Inter, system-ui, sans-serif" font-size="11" fill="#475569">ProbSparse attn</text>
  <text x="350.0" y="201" text-anchor="middle" font-family="Inter, system-ui, sans-serif" font-size="11" fill="#475569">d_model=64 · 1 layer</text>
  <rect x="250" y="243" width="200" height="80" rx="10" ry="10" fill="#FEF3C7" stroke="#F59E0B" stroke-width="1.6"/>
  <rect x="250" y="243" width="4" height="80" rx="2" ry="2" fill="#F59E0B"/>
  <text x="350.0" y="265" text-anchor="middle" font-family="Inter, system-ui, sans-serif" font-size="13" font-weight="700" fill="#0F172A" letter-spacing="0.2">Slow MLP</text>
  <text x="350.0" y="285" text-anchor="middle" font-family="Inter, system-ui, sans-serif" font-size="11" fill="#475569">12 → 32 → 16</text>
  <text x="350.0" y="299" text-anchor="middle" font-family="Inter, system-ui, sans-serif" font-size="11" fill="#475569">GELU · dropout 0.3</text>
  <rect x="490" y="280" width="160" height="80" rx="10" ry="10" fill="#FCE7F3" stroke="#DB2777" stroke-width="1.6"/>
  <rect x="490" y="280" width="4" height="80" rx="2" ry="2" fill="#DB2777"/>
  <text x="570.0" y="302" text-anchor="middle" font-family="Inter, system-ui, sans-serif" font-size="13" font-weight="700" fill="#0F172A" letter-spacing="0.2">Gated fusion</text>
  <text x="570.0" y="322" text-anchor="middle" font-family="Inter, system-ui, sans-serif" font-size="11" fill="#475569">per-channel σ gates</text>
  <text x="570.0" y="336" text-anchor="middle" font-family="Inter, system-ui, sans-serif" font-size="11" fill="#475569">fast ⊙ + slow ⊙</text>
  <rect x="690" y="280" width="200" height="80" rx="10" ry="10" fill="#DCFCE7" stroke="#16A34A" stroke-width="1.6"/>
  <rect x="690" y="280" width="4" height="80" rx="2" ry="2" fill="#16A34A"/>
  <text x="790.0" y="302" text-anchor="middle" font-family="Inter, system-ui, sans-serif" font-size="13" font-weight="700" fill="#0F172A" letter-spacing="0.2">GNN — RGAT</text>
  <text x="790.0" y="322" text-anchor="middle" font-family="Inter, system-ui, sans-serif" font-size="11" fill="#475569">RGAT · 2 layers</text>
  <text x="790.0" y="336" text-anchor="middle" font-family="Inter, system-ui, sans-serif" font-size="11" fill="#475569">edges: correlation · attention · fundamental</text>
  <rect x="930" y="280" width="100" height="80" rx="10" ry="10" fill="#F1F5F9" stroke="#64748B" stroke-width="1.6"/>
  <rect x="930" y="280" width="4" height="80" rx="2" ry="2" fill="#64748B"/>
  <text x="980.0" y="302" text-anchor="middle" font-family="Inter, system-ui, sans-serif" font-size="13" font-weight="700" fill="#0F172A" letter-spacing="0.2">Outer
residual</text>
  <text x="980.0" y="322" text-anchor="middle" font-family="Inter, system-ui, sans-serif" font-size="11" fill="#475569">gated mix</text>
  <text x="980.0" y="336" text-anchor="middle" font-family="Inter, system-ui, sans-serif" font-size="11" fill="#475569">pre + post</text>
  <rect x="1060" y="284" width="100" height="26" rx="6" ry="6" fill="#FEE2E2" stroke="#DC2626" stroke-width="1.3"/>
  <text x="1068" y="301" font-family="Inter, system-ui, sans-serif" font-size="11.5" font-weight="700" fill="#0F172A">ranking</text>
  <text x="1152" y="301" text-anchor="end" font-family="Inter, system-ui, sans-serif" font-size="9.5" fill="#475569" font-style="italic">used</text>
  <rect x="1060" y="316" width="100" height="26" rx="6" ry="6" fill="#F1F5F9" stroke="#94A3B8" stroke-width="1.3"/>
  <text x="1068" y="333" font-family="Inter, system-ui, sans-serif" font-size="11.5" font-weight="700" fill="#0F172A">return</text>
  <text x="1152" y="333" text-anchor="end" font-family="Inter, system-ui, sans-serif" font-size="9.5" fill="#475569" font-style="italic">aux=0</text>
  <rect x="1060" y="348" width="100" height="26" rx="6" ry="6" fill="#F1F5F9" stroke="#94A3B8" stroke-width="1.3"/>
  <text x="1068" y="365" font-family="Inter, system-ui, sans-serif" font-size="11.5" font-weight="700" fill="#0F172A">vol</text>
  <text x="1152" y="365" text-anchor="end" font-family="Inter, system-ui, sans-serif" font-size="9.5" fill="#475569" font-style="italic">aux=0</text>
  <line x1="214" y1="185.0" x2="246" y2="185.0" stroke="#475569" stroke-width="1.5" marker-end="url(#arrow)"/>
  <line x1="214" y1="283.0" x2="246" y2="283.0" stroke="#475569" stroke-width="1.5" marker-end="url(#arrow)"/>
  <line x1="454" y1="185.0" x2="486" y2="306.0" stroke="#475569" stroke-width="1.5" marker-end="url(#arrow)"/>
  <line x1="454" y1="283.0" x2="486" y2="334.0" stroke="#475569" stroke-width="1.5" marker-end="url(#arrow)"/>
  <line x1="654" y1="320.0" x2="686" y2="320.0" stroke="#475569" stroke-width="1.5" marker-end="url(#arrow)"/>
  <line x1="894" y1="320.0" x2="926" y2="320.0" stroke="#475569" stroke-width="1.5" marker-end="url(#arrow)"/>
  <path d="M 654 288 Q 710.0 250 926 288" fill="none" stroke="#64748B" stroke-width="1.2" stroke-dasharray="4,3" marker-end="url(#arrow)"/>
  <text x="710.0" y="247" text-anchor="middle" font-family="Inter, system-ui, sans-serif" font-size="10" fill="#475569" font-style="italic">skip (pre-GNN)</text>
  <line x1="1034" y1="320.0" x2="1056" y2="320.0" stroke="#475569" stroke-width="1.5" marker-end="url(#arrow)"/>
  <line x1="40" y1="392" x2="1140" y2="392" stroke="#E2E8F0" stroke-width="1"/>
  <text x="590.0" y="410" text-anchor="middle" font-family="ui-monospace, SFMono-Regular, monospace" font-size="11" fill="#0F172A">temporal = Informer (1×)  ·  GNN = RGAT, edges = correlation + attention + fundamental  ·  membership = fixed</text>
  <text x="590.0" y="432" text-anchor="middle" font-family="Inter, system-ui, sans-serif" font-size="12" fill="#475569" font-style="italic">→ daily score per stock → top-50 long / bottom-50 short</text>
  <text x="814" y="594" text-anchor="end" font-family="Inter, system-ui, sans-serif" font-size="10" fill="#94A3B8">A → I:</text>
  <circle cx="837.7777777777778" cy="590" r="5" fill="#94A3B8"/>
  <text x="837.7777777777778" y="612" text-anchor="middle" font-family="Inter, system-ui, sans-serif" font-size="9" font-weight="500" fill="#94A3B8">A</text>
  <circle cx="873.3333333333334" cy="590" r="5" fill="#94A3B8"/>
  <text x="873.3333333333334" y="612" text-anchor="middle" font-family="Inter, system-ui, sans-serif" font-size="9" font-weight="500" fill="#94A3B8">B</text>
  <circle cx="908.8888888888889" cy="590" r="5" fill="#94A3B8"/>
  <text x="908.8888888888889" y="612" text-anchor="middle" font-family="Inter, system-ui, sans-serif" font-size="9" font-weight="500" fill="#94A3B8">C</text>
  <circle cx="944.4444444444445" cy="590" r="5" fill="#94A3B8"/>
  <text x="944.4444444444445" y="612" text-anchor="middle" font-family="Inter, system-ui, sans-serif" font-size="9" font-weight="500" fill="#94A3B8">D</text>
  <circle cx="980.0" cy="590" r="8" fill="#7C3AED"/>
  <text x="980.0" y="612" text-anchor="middle" font-family="Inter, system-ui, sans-serif" font-size="9" font-weight="700" fill="#0F172A">E</text>
  <circle cx="1015.5555555555555" cy="590" r="5" fill="#94A3B8"/>
  <text x="1015.5555555555555" y="612" text-anchor="middle" font-family="Inter, system-ui, sans-serif" font-size="9" font-weight="500" fill="#94A3B8">F</text>
  <circle cx="1051.111111111111" cy="590" r="5" fill="#94A3B8"/>
  <text x="1051.111111111111" y="612" text-anchor="middle" font-family="Inter, system-ui, sans-serif" font-size="9" font-weight="500" fill="#94A3B8">G</text>
  <circle cx="1086.6666666666667" cy="590" r="5" fill="#94A3B8"/>
  <text x="1086.6666666666667" y="612" text-anchor="middle" font-family="Inter, system-ui, sans-serif" font-size="9" font-weight="500" fill="#94A3B8">H</text>
  <circle cx="1122.2222222222222" cy="590" r="5" fill="#94A3B8"/>
  <text x="1122.2222222222222" y="612" text-anchor="middle" font-family="Inter, system-ui, sans-serif" font-size="9" font-weight="500" fill="#94A3B8">I</text>
</svg>
